<mxfile host="www.draw.io" modified="2020-01-25T06:18:25.826Z" agent="Mozilla/5.0 (X11; Linux x86_64) AppleWebKit/537.36 (KHTML, like Gecko) Chrome/79.0.3945.117 Safari/537.36" etag="jJEyRXLPA2K4IGb4igSW" version="12.5.6" type="github">
  <diagram name="Page-1" id="e7e014a7-5840-1c2e-5031-d8a46d1fe8dd">
    <mxGraphModel dx="1758" dy="772" grid="0" gridSize="10" guides="1" tooltips="1" connect="1" arrows="1" fold="1" page="0" pageScale="1" pageWidth="1169" pageHeight="826" background="#ffffff" math="0" shadow="0">
      <root>
        <mxCell id="0"/>
        <mxCell id="1" parent="0"/>
        <mxCell id="D7cG0ZzbNtGUGOMF9Ujh-41" value="User" style="swimlane;fontStyle=0;childLayout=stackLayout;horizontal=1;startSize=26;fillColor=none;horizontalStack=0;resizeParent=1;resizeParentMax=0;resizeLast=0;collapsible=1;marginBottom=0;" parent="1" vertex="1">
          <mxGeometry x="-33" y="324" width="175" height="260" as="geometry"/>
        </mxCell>
        <mxCell id="D7cG0ZzbNtGUGOMF9Ujh-43" value="phone_number: String" style="text;strokeColor=none;fillColor=none;align=left;verticalAlign=top;spacingLeft=4;spacingRight=4;overflow=hidden;rotatable=0;points=[[0,0.5],[1,0.5]];portConstraint=eastwest;" parent="D7cG0ZzbNtGUGOMF9Ujh-41" vertex="1">
          <mxGeometry y="26" width="175" height="26" as="geometry"/>
        </mxCell>
        <mxCell id="D7cG0ZzbNtGUGOMF9Ujh-45" value="password: String" style="text;strokeColor=none;fillColor=none;align=left;verticalAlign=top;spacingLeft=4;spacingRight=4;overflow=hidden;rotatable=0;points=[[0,0.5],[1,0.5]];portConstraint=eastwest;" parent="D7cG0ZzbNtGUGOMF9Ujh-41" vertex="1">
          <mxGeometry y="52" width="175" height="26" as="geometry"/>
        </mxCell>
        <mxCell id="D7cG0ZzbNtGUGOMF9Ujh-44" value="key: String" style="text;strokeColor=none;fillColor=none;align=left;verticalAlign=top;spacingLeft=4;spacingRight=4;overflow=hidden;rotatable=0;points=[[0,0.5],[1,0.5]];portConstraint=eastwest;" parent="D7cG0ZzbNtGUGOMF9Ujh-41" vertex="1">
          <mxGeometry y="78" width="175" height="26" as="geometry"/>
        </mxCell>
        <mxCell id="D7cG0ZzbNtGUGOMF9Ujh-46" value="is_active: Boolean" style="text;strokeColor=none;fillColor=none;align=left;verticalAlign=top;spacingLeft=4;spacingRight=4;overflow=hidden;rotatable=0;points=[[0,0.5],[1,0.5]];portConstraint=eastwest;" parent="D7cG0ZzbNtGUGOMF9Ujh-41" vertex="1">
          <mxGeometry y="104" width="175" height="26" as="geometry"/>
        </mxCell>
        <mxCell id="D7cG0ZzbNtGUGOMF9Ujh-47" value="user_type: Enum" style="text;strokeColor=none;fillColor=none;align=left;verticalAlign=top;spacingLeft=4;spacingRight=4;overflow=hidden;rotatable=0;points=[[0,0.5],[1,0.5]];portConstraint=eastwest;" parent="D7cG0ZzbNtGUGOMF9Ujh-41" vertex="1">
          <mxGeometry y="130" width="175" height="26" as="geometry"/>
        </mxCell>
        <mxCell id="D7cG0ZzbNtGUGOMF9Ujh-49" value="first_name: String" style="text;strokeColor=none;fillColor=none;align=left;verticalAlign=top;spacingLeft=4;spacingRight=4;overflow=hidden;rotatable=0;points=[[0,0.5],[1,0.5]];portConstraint=eastwest;" parent="D7cG0ZzbNtGUGOMF9Ujh-41" vertex="1">
          <mxGeometry y="156" width="175" height="26" as="geometry"/>
        </mxCell>
        <mxCell id="D7cG0ZzbNtGUGOMF9Ujh-50" value="last_name: String" style="text;strokeColor=none;fillColor=none;align=left;verticalAlign=top;spacingLeft=4;spacingRight=4;overflow=hidden;rotatable=0;points=[[0,0.5],[1,0.5]];portConstraint=eastwest;" parent="D7cG0ZzbNtGUGOMF9Ujh-41" vertex="1">
          <mxGeometry y="182" width="175" height="26" as="geometry"/>
        </mxCell>
        <mxCell id="D7cG0ZzbNtGUGOMF9Ujh-51" value="country: String" style="text;strokeColor=none;fillColor=none;align=left;verticalAlign=top;spacingLeft=4;spacingRight=4;overflow=hidden;rotatable=0;points=[[0,0.5],[1,0.5]];portConstraint=eastwest;" parent="D7cG0ZzbNtGUGOMF9Ujh-41" vertex="1">
          <mxGeometry y="208" width="175" height="26" as="geometry"/>
        </mxCell>
        <mxCell id="D7cG0ZzbNtGUGOMF9Ujh-52" value="avatar: Image File" style="text;strokeColor=none;fillColor=none;align=left;verticalAlign=top;spacingLeft=4;spacingRight=4;overflow=hidden;rotatable=0;points=[[0,0.5],[1,0.5]];portConstraint=eastwest;" parent="D7cG0ZzbNtGUGOMF9Ujh-41" vertex="1">
          <mxGeometry y="234" width="175" height="26" as="geometry"/>
        </mxCell>
        <mxCell id="D7cG0ZzbNtGUGOMF9Ujh-53" value="Corporation" style="swimlane;fontStyle=0;childLayout=stackLayout;horizontal=1;startSize=26;fillColor=none;horizontalStack=0;resizeParent=1;resizeParentMax=0;resizeLast=0;collapsible=1;marginBottom=0;" parent="1" vertex="1">
          <mxGeometry x="-33" y="184" width="175" height="52" as="geometry"/>
        </mxCell>
        <mxCell id="D7cG0ZzbNtGUGOMF9Ujh-54" value="label: String" style="text;strokeColor=none;fillColor=none;align=left;verticalAlign=top;spacingLeft=4;spacingRight=4;overflow=hidden;rotatable=0;points=[[0,0.5],[1,0.5]];portConstraint=eastwest;" parent="D7cG0ZzbNtGUGOMF9Ujh-53" vertex="1">
          <mxGeometry y="26" width="175" height="26" as="geometry"/>
        </mxCell>
        <mxCell id="D7cG0ZzbNtGUGOMF9Ujh-57" value="" style="endArrow=diamondThin;endFill=1;endSize=24;html=1;" parent="1" source="D7cG0ZzbNtGUGOMF9Ujh-53" target="D7cG0ZzbNtGUGOMF9Ujh-41" edge="1">
          <mxGeometry width="160" relative="1" as="geometry">
            <mxPoint x="-33" y="633" as="sourcePoint"/>
            <mxPoint x="127" y="633" as="targetPoint"/>
          </mxGeometry>
        </mxCell>
        <mxCell id="D7cG0ZzbNtGUGOMF9Ujh-58" value="1..*" style="text;html=1;align=center;verticalAlign=middle;resizable=0;points=[];autosize=1;" parent="1" vertex="1">
          <mxGeometry x="58" y="306" width="28" height="18" as="geometry"/>
        </mxCell>
        <mxCell id="D7cG0ZzbNtGUGOMF9Ujh-59" value="0..1" style="text;html=1;align=center;verticalAlign=middle;resizable=0;points=[];autosize=1;" parent="1" vertex="1">
          <mxGeometry x="54" y="237" width="30" height="18" as="geometry"/>
        </mxCell>
        <mxCell id="D7cG0ZzbNtGUGOMF9Ujh-65" value="" style="endArrow=diamondThin;endFill=1;endSize=24;html=1;" parent="1" source="D7cG0ZzbNtGUGOMF9Ujh-53" target="D7cG0ZzbNtGUGOMF9Ujh-74" edge="1">
          <mxGeometry width="160" relative="1" as="geometry">
            <mxPoint x="-25" y="633" as="sourcePoint"/>
            <mxPoint x="316.40714285714284" y="324" as="targetPoint"/>
            <Array as="points">
              <mxPoint x="316" y="210"/>
            </Array>
          </mxGeometry>
        </mxCell>
        <mxCell id="D7cG0ZzbNtGUGOMF9Ujh-66" value="1" style="text;html=1;align=center;verticalAlign=middle;resizable=0;points=[];autosize=1;" parent="1" vertex="1">
          <mxGeometry x="322" y="306" width="17" height="18" as="geometry"/>
        </mxCell>
        <mxCell id="D7cG0ZzbNtGUGOMF9Ujh-67" value="1" style="text;html=1;align=center;verticalAlign=middle;resizable=0;points=[];autosize=1;" parent="1" vertex="1">
          <mxGeometry x="138" y="210" width="17" height="18" as="geometry"/>
        </mxCell>
        <mxCell id="D7cG0ZzbNtGUGOMF9Ujh-68" value="Location *" style="swimlane;fontStyle=0;childLayout=stackLayout;horizontal=1;startSize=26;fillColor=none;horizontalStack=0;resizeParent=1;resizeParentMax=0;resizeLast=0;collapsible=1;marginBottom=0;" parent="1" vertex="1">
          <mxGeometry x="447" y="211" width="175" height="78" as="geometry"/>
        </mxCell>
        <mxCell id="D7cG0ZzbNtGUGOMF9Ujh-72" value="latitude: Decimal(9, 6)" style="text;strokeColor=none;fillColor=none;align=left;verticalAlign=top;spacingLeft=4;spacingRight=4;overflow=hidden;rotatable=0;points=[[0,0.5],[1,0.5]];portConstraint=eastwest;" parent="D7cG0ZzbNtGUGOMF9Ujh-68" vertex="1">
          <mxGeometry y="26" width="175" height="26" as="geometry"/>
        </mxCell>
        <mxCell id="D7cG0ZzbNtGUGOMF9Ujh-73" value="longitude: Decimal(9, 6)" style="text;strokeColor=none;fillColor=none;align=left;verticalAlign=top;spacingLeft=4;spacingRight=4;overflow=hidden;rotatable=0;points=[[0,0.5],[1,0.5]];portConstraint=eastwest;" parent="D7cG0ZzbNtGUGOMF9Ujh-68" vertex="1">
          <mxGeometry y="52" width="175" height="26" as="geometry"/>
        </mxCell>
        <mxCell id="D7cG0ZzbNtGUGOMF9Ujh-74" value="Corporate Model *" style="html=1;" parent="1" vertex="1">
          <mxGeometry x="229" y="324" width="175" height="36" as="geometry"/>
        </mxCell>
        <mxCell id="D7cG0ZzbNtGUGOMF9Ujh-86" value="Image" style="swimlane;fontStyle=0;childLayout=stackLayout;horizontal=1;startSize=26;fillColor=none;horizontalStack=0;resizeParent=1;resizeParentMax=0;resizeLast=0;collapsible=1;marginBottom=0;" parent="1" vertex="1">
          <mxGeometry x="678.5" y="184" width="175" height="52" as="geometry"/>
        </mxCell>
        <mxCell id="D7cG0ZzbNtGUGOMF9Ujh-87" value="image: Image File" style="text;strokeColor=none;fillColor=none;align=left;verticalAlign=top;spacingLeft=4;spacingRight=4;overflow=hidden;rotatable=0;points=[[0,0.5],[1,0.5]];portConstraint=eastwest;" parent="D7cG0ZzbNtGUGOMF9Ujh-86" vertex="1">
          <mxGeometry y="26" width="175" height="26" as="geometry"/>
        </mxCell>
        <mxCell id="D7cG0ZzbNtGUGOMF9Ujh-90" value="Image Gallery" style="swimlane;fontStyle=0;childLayout=stackLayout;horizontal=1;startSize=26;fillColor=none;horizontalStack=0;resizeParent=1;resizeParentMax=0;resizeLast=0;collapsible=1;marginBottom=0;" parent="1" vertex="1">
          <mxGeometry x="678.5" y="280" width="175" height="52" as="geometry"/>
        </mxCell>
        <mxCell id="D7cG0ZzbNtGUGOMF9Ujh-91" value="created: Date and Time" style="text;strokeColor=none;fillColor=none;align=left;verticalAlign=top;spacingLeft=4;spacingRight=4;overflow=hidden;rotatable=0;points=[[0,0.5],[1,0.5]];portConstraint=eastwest;" parent="D7cG0ZzbNtGUGOMF9Ujh-90" vertex="1">
          <mxGeometry y="26" width="175" height="26" as="geometry"/>
        </mxCell>
        <mxCell id="D7cG0ZzbNtGUGOMF9Ujh-93" value="" style="endArrow=diamondThin;endFill=1;endSize=24;html=1;" parent="1" source="D7cG0ZzbNtGUGOMF9Ujh-86" target="D7cG0ZzbNtGUGOMF9Ujh-90" edge="1">
          <mxGeometry width="160" relative="1" as="geometry">
            <mxPoint x="601.5" y="393" as="sourcePoint"/>
            <mxPoint x="761.5" y="393" as="targetPoint"/>
          </mxGeometry>
        </mxCell>
        <mxCell id="D7cG0ZzbNtGUGOMF9Ujh-96" value="1..*" style="text;html=1;align=center;verticalAlign=middle;resizable=0;points=[];autosize=1;" parent="1" vertex="1">
          <mxGeometry x="765.5" y="236" width="28" height="18" as="geometry"/>
        </mxCell>
        <mxCell id="D7cG0ZzbNtGUGOMF9Ujh-97" value="1" style="text;html=1;align=center;verticalAlign=middle;resizable=0;points=[];autosize=1;" parent="1" vertex="1">
          <mxGeometry x="772" y="261" width="17" height="18" as="geometry"/>
        </mxCell>
        <mxCell id="D7cG0ZzbNtGUGOMF9Ujh-98" value="" style="endArrow=diamondThin;endFill=1;endSize=24;html=1;" parent="1" source="D7cG0ZzbNtGUGOMF9Ujh-90" target="D7cG0ZzbNtGUGOMF9Ujh-145" edge="1">
          <mxGeometry width="160" relative="1" as="geometry">
            <mxPoint x="554" y="366" as="sourcePoint"/>
            <mxPoint x="714" y="366" as="targetPoint"/>
          </mxGeometry>
        </mxCell>
        <mxCell id="D7cG0ZzbNtGUGOMF9Ujh-101" value="Hotel Room" style="swimlane;fontStyle=0;childLayout=stackLayout;horizontal=1;startSize=26;fillColor=none;horizontalStack=0;resizeParent=1;resizeParentMax=0;resizeLast=0;collapsible=1;marginBottom=0;" parent="1" vertex="1">
          <mxGeometry x="678.5" y="542" width="175" height="78" as="geometry"/>
        </mxCell>
        <mxCell id="D7cG0ZzbNtGUGOMF9Ujh-103" value="beds: Integer" style="text;strokeColor=none;fillColor=none;align=left;verticalAlign=top;spacingLeft=4;spacingRight=4;overflow=hidden;rotatable=0;points=[[0,0.5],[1,0.5]];portConstraint=eastwest;" parent="D7cG0ZzbNtGUGOMF9Ujh-101" vertex="1">
          <mxGeometry y="26" width="175" height="26" as="geometry"/>
        </mxCell>
        <mxCell id="D7cG0ZzbNtGUGOMF9Ujh-158" value="price: Integer" style="text;strokeColor=none;fillColor=none;align=left;verticalAlign=top;spacingLeft=4;spacingRight=4;overflow=hidden;rotatable=0;points=[[0,0.5],[1,0.5]];portConstraint=eastwest;" parent="D7cG0ZzbNtGUGOMF9Ujh-101" vertex="1">
          <mxGeometry y="52" width="175" height="26" as="geometry"/>
        </mxCell>
        <mxCell id="D7cG0ZzbNtGUGOMF9Ujh-108" value="Extends" style="endArrow=block;endSize=16;endFill=0;html=1;entryX=1;entryY=0.5;entryDx=0;entryDy=0;" parent="1" source="D7cG0ZzbNtGUGOMF9Ujh-145" target="D7cG0ZzbNtGUGOMF9Ujh-74" edge="1">
          <mxGeometry width="160" relative="1" as="geometry">
            <mxPoint x="561" y="611" as="sourcePoint"/>
            <mxPoint x="721" y="611" as="targetPoint"/>
          </mxGeometry>
        </mxCell>
        <mxCell id="D7cG0ZzbNtGUGOMF9Ujh-109" value="Extends" style="endArrow=block;endSize=16;endFill=0;html=1;" parent="1" source="D7cG0ZzbNtGUGOMF9Ujh-145" target="D7cG0ZzbNtGUGOMF9Ujh-68" edge="1">
          <mxGeometry width="160" relative="1" as="geometry">
            <mxPoint x="512" y="647" as="sourcePoint"/>
            <mxPoint x="672" y="647" as="targetPoint"/>
          </mxGeometry>
        </mxCell>
        <mxCell id="D7cG0ZzbNtGUGOMF9Ujh-110" value="1" style="text;html=1;align=center;verticalAlign=middle;resizable=0;points=[];autosize=1;" parent="1" vertex="1">
          <mxGeometry x="765.5" y="331" width="17" height="18" as="geometry"/>
        </mxCell>
        <mxCell id="D7cG0ZzbNtGUGOMF9Ujh-112" value="1" style="text;html=1;align=center;verticalAlign=middle;resizable=0;points=[];autosize=1;" parent="1" vertex="1">
          <mxGeometry x="724.5" y="331" width="17" height="18" as="geometry"/>
        </mxCell>
        <mxCell id="D7cG0ZzbNtGUGOMF9Ujh-113" value="1" style="text;html=1;align=center;verticalAlign=middle;resizable=0;points=[];autosize=1;" parent="1" vertex="1">
          <mxGeometry x="570" y="420" width="17" height="18" as="geometry"/>
        </mxCell>
        <mxCell id="D7cG0ZzbNtGUGOMF9Ujh-120" value="Rental" style="swimlane;fontStyle=0;childLayout=stackLayout;horizontal=1;startSize=26;fillColor=none;horizontalStack=0;resizeParent=1;resizeParentMax=0;resizeLast=0;collapsible=1;marginBottom=0;" parent="1" vertex="1">
          <mxGeometry x="909" y="608" width="175" height="78" as="geometry"/>
        </mxCell>
        <mxCell id="D7cG0ZzbNtGUGOMF9Ujh-122" value="name: String" style="text;strokeColor=none;fillColor=none;align=left;verticalAlign=top;spacingLeft=4;spacingRight=4;overflow=hidden;rotatable=0;points=[[0,0.5],[1,0.5]];portConstraint=eastwest;" parent="D7cG0ZzbNtGUGOMF9Ujh-120" vertex="1">
          <mxGeometry y="26" width="175" height="26" as="geometry"/>
        </mxCell>
        <mxCell id="D7cG0ZzbNtGUGOMF9Ujh-132" value="price: Integer" style="text;strokeColor=none;fillColor=none;align=left;verticalAlign=top;spacingLeft=4;spacingRight=4;overflow=hidden;rotatable=0;points=[[0,0.5],[1,0.5]];portConstraint=eastwest;" parent="D7cG0ZzbNtGUGOMF9Ujh-120" vertex="1">
          <mxGeometry y="52" width="175" height="26" as="geometry"/>
        </mxCell>
        <mxCell id="D7cG0ZzbNtGUGOMF9Ujh-133" value="" style="endArrow=diamondThin;endFill=1;endSize=24;html=1;" parent="1" source="D7cG0ZzbNtGUGOMF9Ujh-90" target="D7cG0ZzbNtGUGOMF9Ujh-155" edge="1">
          <mxGeometry width="160" relative="1" as="geometry">
            <mxPoint x="236.5" y="812" as="sourcePoint"/>
            <mxPoint x="396.5" y="812" as="targetPoint"/>
          </mxGeometry>
        </mxCell>
        <mxCell id="D7cG0ZzbNtGUGOMF9Ujh-134" value="Medical Service" style="swimlane;fontStyle=0;childLayout=stackLayout;horizontal=1;startSize=26;fillColor=none;horizontalStack=0;resizeParent=1;resizeParentMax=0;resizeLast=0;collapsible=1;marginBottom=0;" parent="1" vertex="1">
          <mxGeometry x="678.5" y="687" width="175" height="52" as="geometry"/>
        </mxCell>
        <mxCell id="D7cG0ZzbNtGUGOMF9Ujh-136" value="name: String" style="text;strokeColor=none;fillColor=none;align=left;verticalAlign=top;spacingLeft=4;spacingRight=4;overflow=hidden;rotatable=0;points=[[0,0.5],[1,0.5]];portConstraint=eastwest;" parent="D7cG0ZzbNtGUGOMF9Ujh-134" vertex="1">
          <mxGeometry y="26" width="175" height="26" as="geometry"/>
        </mxCell>
        <mxCell id="D7cG0ZzbNtGUGOMF9Ujh-140" value="* No database counterpart." style="text;html=1;align=center;verticalAlign=middle;resizable=0;points=[];autosize=1;" parent="1" vertex="1">
          <mxGeometry x="-33" y="109.5" width="153" height="18" as="geometry"/>
        </mxCell>
        <mxCell id="D7cG0ZzbNtGUGOMF9Ujh-145" value="Service Center *" style="swimlane;fontStyle=0;childLayout=stackLayout;horizontal=1;startSize=26;fillColor=none;horizontalStack=0;resizeParent=1;resizeParentMax=0;resizeLast=0;collapsible=1;marginBottom=0;" parent="1" vertex="1">
          <mxGeometry x="447" y="438" width="175" height="78" as="geometry"/>
        </mxCell>
        <mxCell id="D7cG0ZzbNtGUGOMF9Ujh-146" value="name: String" style="text;strokeColor=none;fillColor=none;align=left;verticalAlign=top;spacingLeft=4;spacingRight=4;overflow=hidden;rotatable=0;points=[[0,0.5],[1,0.5]];portConstraint=eastwest;" parent="D7cG0ZzbNtGUGOMF9Ujh-145" vertex="1">
          <mxGeometry y="26" width="175" height="26" as="geometry"/>
        </mxCell>
        <mxCell id="D7cG0ZzbNtGUGOMF9Ujh-147" value="description: String" style="text;strokeColor=none;fillColor=none;align=left;verticalAlign=top;spacingLeft=4;spacingRight=4;overflow=hidden;rotatable=0;points=[[0,0.5],[1,0.5]];portConstraint=eastwest;" parent="D7cG0ZzbNtGUGOMF9Ujh-145" vertex="1">
          <mxGeometry y="52" width="175" height="26" as="geometry"/>
        </mxCell>
        <mxCell id="D7cG0ZzbNtGUGOMF9Ujh-149" value="Hotel" style="html=1;" parent="1" vertex="1">
          <mxGeometry x="447" y="563" width="175" height="36" as="geometry"/>
        </mxCell>
        <mxCell id="D7cG0ZzbNtGUGOMF9Ujh-150" value="Renting Center" style="html=1;" parent="1" vertex="1">
          <mxGeometry x="447" y="629" width="175" height="36" as="geometry"/>
        </mxCell>
        <mxCell id="D7cG0ZzbNtGUGOMF9Ujh-151" value="Medical Facility" style="html=1;" parent="1" vertex="1">
          <mxGeometry x="447" y="695" width="175" height="36" as="geometry"/>
        </mxCell>
        <mxCell id="D7cG0ZzbNtGUGOMF9Ujh-152" value="Extends" style="endArrow=block;endSize=16;endFill=0;html=1;" parent="1" source="D7cG0ZzbNtGUGOMF9Ujh-149" target="D7cG0ZzbNtGUGOMF9Ujh-145" edge="1">
          <mxGeometry x="-0.3617" width="160" relative="1" as="geometry">
            <mxPoint x="377" y="757" as="sourcePoint"/>
            <mxPoint x="377" y="608" as="targetPoint"/>
            <mxPoint as="offset"/>
          </mxGeometry>
        </mxCell>
        <mxCell id="D7cG0ZzbNtGUGOMF9Ujh-153" value="Extends" style="endArrow=block;endSize=16;endFill=0;html=1;entryX=0.249;entryY=0.974;entryDx=0;entryDy=0;entryPerimeter=0;" parent="1" source="D7cG0ZzbNtGUGOMF9Ujh-150" target="D7cG0ZzbNtGUGOMF9Ujh-147" edge="1">
          <mxGeometry x="-0.7335" width="160" relative="1" as="geometry">
            <mxPoint x="544.5" y="573" as="sourcePoint"/>
            <mxPoint x="490" y="517" as="targetPoint"/>
            <mxPoint as="offset"/>
          </mxGeometry>
        </mxCell>
        <mxCell id="D7cG0ZzbNtGUGOMF9Ujh-154" value="Extends" style="endArrow=block;endSize=16;endFill=0;html=1;entryX=0.744;entryY=1.016;entryDx=0;entryDy=0;entryPerimeter=0;" parent="1" source="D7cG0ZzbNtGUGOMF9Ujh-151" target="D7cG0ZzbNtGUGOMF9Ujh-147" edge="1">
          <mxGeometry x="-0.8396" y="3" width="160" relative="1" as="geometry">
            <mxPoint x="544.5" y="639" as="sourcePoint"/>
            <mxPoint x="544.5" y="525.9999999999998" as="targetPoint"/>
            <mxPoint as="offset"/>
          </mxGeometry>
        </mxCell>
        <mxCell id="D7cG0ZzbNtGUGOMF9Ujh-155" value="Service *" style="swimlane;fontStyle=0;childLayout=stackLayout;horizontal=1;startSize=26;fillColor=none;horizontalStack=0;resizeParent=1;resizeParentMax=0;resizeLast=0;collapsible=1;marginBottom=0;" parent="1" vertex="1">
          <mxGeometry x="678.5" y="417" width="175" height="78" as="geometry"/>
        </mxCell>
        <mxCell id="D7cG0ZzbNtGUGOMF9Ujh-102" value="available: Boolean" style="text;strokeColor=none;fillColor=none;align=left;verticalAlign=top;spacingLeft=4;spacingRight=4;overflow=hidden;rotatable=0;points=[[0,0.5],[1,0.5]];portConstraint=eastwest;" parent="D7cG0ZzbNtGUGOMF9Ujh-155" vertex="1">
          <mxGeometry y="26" width="175" height="26" as="geometry"/>
        </mxCell>
        <mxCell id="D7cG0ZzbNtGUGOMF9Ujh-105" value="description: String" style="text;strokeColor=none;fillColor=none;align=left;verticalAlign=top;spacingLeft=4;spacingRight=4;overflow=hidden;rotatable=0;points=[[0,0.5],[1,0.5]];portConstraint=eastwest;" parent="D7cG0ZzbNtGUGOMF9Ujh-155" vertex="1">
          <mxGeometry y="52" width="175" height="26" as="geometry"/>
        </mxCell>
        <mxCell id="D7cG0ZzbNtGUGOMF9Ujh-159" value="Extends" style="endArrow=block;endSize=16;endFill=0;html=1;" parent="1" source="D7cG0ZzbNtGUGOMF9Ujh-101" target="D7cG0ZzbNtGUGOMF9Ujh-155" edge="1">
          <mxGeometry x="-0.3191" width="160" relative="1" as="geometry">
            <mxPoint x="518.5" y="763" as="sourcePoint"/>
            <mxPoint x="678.5" y="763" as="targetPoint"/>
            <mxPoint as="offset"/>
          </mxGeometry>
        </mxCell>
        <mxCell id="D7cG0ZzbNtGUGOMF9Ujh-160" value="" style="endArrow=diamondThin;endFill=0;endSize=24;html=1;" parent="1" source="D7cG0ZzbNtGUGOMF9Ujh-101" target="D7cG0ZzbNtGUGOMF9Ujh-149" edge="1">
          <mxGeometry width="160" relative="1" as="geometry">
            <mxPoint x="510" y="784" as="sourcePoint"/>
            <mxPoint x="670" y="784" as="targetPoint"/>
          </mxGeometry>
        </mxCell>
        <mxCell id="D7cG0ZzbNtGUGOMF9Ujh-161" value="1" style="text;html=1;align=center;verticalAlign=middle;resizable=0;points=[];autosize=1;" parent="1" vertex="1">
          <mxGeometry x="772" y="399" width="17" height="18" as="geometry"/>
        </mxCell>
        <mxCell id="D7cG0ZzbNtGUGOMF9Ujh-162" value="1" style="text;html=1;align=center;verticalAlign=middle;resizable=0;points=[];autosize=1;" parent="1" vertex="1">
          <mxGeometry x="620" y="557" width="17" height="18" as="geometry"/>
        </mxCell>
        <mxCell id="D7cG0ZzbNtGUGOMF9Ujh-163" value="1..*" style="text;html=1;align=center;verticalAlign=middle;resizable=0;points=[];autosize=1;" parent="1" vertex="1">
          <mxGeometry x="650.5" y="563" width="28" height="18" as="geometry"/>
        </mxCell>
        <mxCell id="D7cG0ZzbNtGUGOMF9Ujh-164" value="Extends" style="endArrow=block;endSize=16;endFill=0;html=1;exitX=0.5;exitY=0;exitDx=0;exitDy=0;" parent="1" source="D7cG0ZzbNtGUGOMF9Ujh-120" target="D7cG0ZzbNtGUGOMF9Ujh-155" edge="1">
          <mxGeometry x="0.5276" y="2" width="160" relative="1" as="geometry">
            <mxPoint x="800.9154889273673" y="809.6800000000001" as="sourcePoint"/>
            <mxPoint x="762.9950000000001" y="696.0040000000001" as="targetPoint"/>
            <mxPoint as="offset"/>
          </mxGeometry>
        </mxCell>
        <mxCell id="D7cG0ZzbNtGUGOMF9Ujh-165" value="" style="endArrow=diamondThin;endFill=0;endSize=24;html=1;" parent="1" source="D7cG0ZzbNtGUGOMF9Ujh-120" target="D7cG0ZzbNtGUGOMF9Ujh-150" edge="1">
          <mxGeometry width="160" relative="1" as="geometry">
            <mxPoint x="701.5" y="649.5" as="sourcePoint"/>
            <mxPoint x="645" y="649.5" as="targetPoint"/>
          </mxGeometry>
        </mxCell>
        <mxCell id="D7cG0ZzbNtGUGOMF9Ujh-166" value="1" style="text;html=1;align=center;verticalAlign=middle;resizable=0;points=[];autosize=1;" parent="1" vertex="1">
          <mxGeometry x="620" y="623" width="17" height="18" as="geometry"/>
        </mxCell>
        <mxCell id="D7cG0ZzbNtGUGOMF9Ujh-167" value="1..*" style="text;html=1;align=center;verticalAlign=middle;resizable=0;points=[];autosize=1;" parent="1" vertex="1">
          <mxGeometry x="878.5" y="629" width="28" height="18" as="geometry"/>
        </mxCell>
        <mxCell id="D7cG0ZzbNtGUGOMF9Ujh-170" value="" style="endArrow=diamondThin;endFill=0;endSize=24;html=1;" parent="1" source="D7cG0ZzbNtGUGOMF9Ujh-134" target="D7cG0ZzbNtGUGOMF9Ujh-151" edge="1">
          <mxGeometry width="160" relative="1" as="geometry">
            <mxPoint x="682.5" y="777" as="sourcePoint"/>
            <mxPoint x="626.0000000000002" y="777" as="targetPoint"/>
          </mxGeometry>
        </mxCell>
        <mxCell id="D7cG0ZzbNtGUGOMF9Ujh-171" value="1" style="text;html=1;align=center;verticalAlign=middle;resizable=0;points=[];autosize=1;" parent="1" vertex="1">
          <mxGeometry x="620" y="690" width="17" height="18" as="geometry"/>
        </mxCell>
        <mxCell id="D7cG0ZzbNtGUGOMF9Ujh-172" value="1..*" style="text;html=1;align=center;verticalAlign=middle;resizable=0;points=[];autosize=1;" parent="1" vertex="1">
          <mxGeometry x="650.5" y="695" width="28" height="18" as="geometry"/>
        </mxCell>
        <mxCell id="D7cG0ZzbNtGUGOMF9Ujh-173" value="Extends" style="endArrow=block;endSize=16;endFill=0;html=1;entryX=0.684;entryY=0.962;entryDx=0;entryDy=0;entryPerimeter=0;" parent="1" source="D7cG0ZzbNtGUGOMF9Ujh-134" target="D7cG0ZzbNtGUGOMF9Ujh-105" edge="1">
          <mxGeometry x="0.6713" y="-16" width="160" relative="1" as="geometry">
            <mxPoint x="978.5" y="618" as="sourcePoint"/>
            <mxPoint x="827.9572368421052" y="505" as="targetPoint"/>
            <mxPoint as="offset"/>
          </mxGeometry>
        </mxCell>
        <mxCell id="D7cG0ZzbNtGUGOMF9Ujh-174" value="Trip" style="swimlane;fontStyle=0;childLayout=stackLayout;horizontal=1;startSize=26;fillColor=none;horizontalStack=0;resizeParent=1;resizeParentMax=0;resizeLast=0;collapsible=1;marginBottom=0;" parent="1" vertex="1">
          <mxGeometry x="563.5" y="798" width="175" height="130" as="geometry"/>
        </mxCell>
        <mxCell id="D7cG0ZzbNtGUGOMF9Ujh-177" value="available: Boolean" style="text;strokeColor=none;fillColor=none;align=left;verticalAlign=top;spacingLeft=4;spacingRight=4;overflow=hidden;rotatable=0;points=[[0,0.5],[1,0.5]];portConstraint=eastwest;" parent="D7cG0ZzbNtGUGOMF9Ujh-174" vertex="1">
          <mxGeometry y="26" width="175" height="26" as="geometry"/>
        </mxCell>
        <mxCell id="D7cG0ZzbNtGUGOMF9Ujh-175" value="available_until: Date and Time" style="text;strokeColor=none;fillColor=none;align=left;verticalAlign=top;spacingLeft=4;spacingRight=4;overflow=hidden;rotatable=0;points=[[0,0.5],[1,0.5]];portConstraint=eastwest;" parent="D7cG0ZzbNtGUGOMF9Ujh-174" vertex="1">
          <mxGeometry y="52" width="175" height="26" as="geometry"/>
        </mxCell>
        <mxCell id="D7cG0ZzbNtGUGOMF9Ujh-178" value="name: String" style="text;strokeColor=none;fillColor=none;align=left;verticalAlign=top;spacingLeft=4;spacingRight=4;overflow=hidden;rotatable=0;points=[[0,0.5],[1,0.5]];portConstraint=eastwest;" parent="D7cG0ZzbNtGUGOMF9Ujh-174" vertex="1">
          <mxGeometry y="78" width="175" height="26" as="geometry"/>
        </mxCell>
        <mxCell id="D7cG0ZzbNtGUGOMF9Ujh-181" value="description: String" style="text;strokeColor=none;fillColor=none;align=left;verticalAlign=top;spacingLeft=4;spacingRight=4;overflow=hidden;rotatable=0;points=[[0,0.5],[1,0.5]];portConstraint=eastwest;" parent="D7cG0ZzbNtGUGOMF9Ujh-174" vertex="1">
          <mxGeometry y="104" width="175" height="26" as="geometry"/>
        </mxCell>
        <mxCell id="D7cG0ZzbNtGUGOMF9Ujh-184" value="" style="endArrow=diamondThin;endFill=1;endSize=24;html=1;" parent="1" source="D7cG0ZzbNtGUGOMF9Ujh-90" target="D7cG0ZzbNtGUGOMF9Ujh-174" edge="1">
          <mxGeometry width="160" relative="1" as="geometry">
            <mxPoint x="776" y="342" as="sourcePoint"/>
            <mxPoint x="776" y="427" as="targetPoint"/>
          </mxGeometry>
        </mxCell>
        <mxCell id="D7cG0ZzbNtGUGOMF9Ujh-185" value="1" style="text;html=1;align=center;verticalAlign=middle;resizable=0;points=[];autosize=1;" parent="1" vertex="1">
          <mxGeometry x="742.5" y="331" width="17" height="18" as="geometry"/>
        </mxCell>
        <mxCell id="D7cG0ZzbNtGUGOMF9Ujh-187" value="" style="endArrow=diamondThin;endFill=0;endSize=24;html=1;entryX=0.857;entryY=0.987;entryDx=0;entryDy=0;entryPerimeter=0;" parent="1" source="D7cG0ZzbNtGUGOMF9Ujh-174" target="D7cG0ZzbNtGUGOMF9Ujh-149" edge="1">
          <mxGeometry width="160" relative="1" as="geometry">
            <mxPoint x="425" y="957" as="sourcePoint"/>
            <mxPoint x="585" y="957" as="targetPoint"/>
          </mxGeometry>
        </mxCell>
        <mxCell id="D7cG0ZzbNtGUGOMF9Ujh-188" value="" style="endArrow=diamondThin;endFill=0;endSize=24;html=1;entryX=0.8;entryY=0.991;entryDx=0;entryDy=0;entryPerimeter=0;" parent="1" source="D7cG0ZzbNtGUGOMF9Ujh-174" target="D7cG0ZzbNtGUGOMF9Ujh-150" edge="1">
          <mxGeometry width="160" relative="1" as="geometry">
            <mxPoint x="727.2202572347269" y="837" as="sourcePoint"/>
            <mxPoint x="615.6800000000001" y="665.1619999999999" as="targetPoint"/>
          </mxGeometry>
        </mxCell>
        <mxCell id="D7cG0ZzbNtGUGOMF9Ujh-189" value="" style="endArrow=diamondThin;endFill=0;endSize=24;html=1;entryX=0.953;entryY=-0.022;entryDx=0;entryDy=0;entryPerimeter=0;" parent="1" source="D7cG0ZzbNtGUGOMF9Ujh-174" target="D7cG0ZzbNtGUGOMF9Ujh-190" edge="1">
          <mxGeometry width="160" relative="1" as="geometry">
            <mxPoint x="714.2142857142856" y="837" as="sourcePoint"/>
            <mxPoint x="561.4714285714288" y="675" as="targetPoint"/>
          </mxGeometry>
        </mxCell>
        <mxCell id="D7cG0ZzbNtGUGOMF9Ujh-190" value="0..1" style="text;html=1;align=center;verticalAlign=middle;resizable=0;points=[];autosize=1;" parent="1" vertex="1">
          <mxGeometry x="529" y="731" width="30" height="18" as="geometry"/>
        </mxCell>
        <mxCell id="D7cG0ZzbNtGUGOMF9Ujh-192" value="0..1" style="text;html=1;align=center;verticalAlign=middle;resizable=0;points=[];autosize=1;" parent="1" vertex="1">
          <mxGeometry x="563.5" y="599" width="30" height="18" as="geometry"/>
        </mxCell>
        <mxCell id="D7cG0ZzbNtGUGOMF9Ujh-195" value="0..1" style="text;html=1;align=center;verticalAlign=middle;resizable=0;points=[];autosize=1;" parent="1" vertex="1">
          <mxGeometry x="558" y="662" width="30" height="18" as="geometry"/>
        </mxCell>
        <mxCell id="NWVS9Q70U_lOfjmnCu6K-1" value="Activity" style="swimlane;fontStyle=0;childLayout=stackLayout;horizontal=1;startSize=26;fillColor=none;horizontalStack=0;resizeParent=1;resizeParentMax=0;resizeLast=0;collapsible=1;marginBottom=0;" parent="1" vertex="1">
          <mxGeometry x="563.5" y="992" width="175" height="52" as="geometry"/>
        </mxCell>
        <mxCell id="NWVS9Q70U_lOfjmnCu6K-2" value="name: String" style="text;strokeColor=none;fillColor=none;align=left;verticalAlign=top;spacingLeft=4;spacingRight=4;overflow=hidden;rotatable=0;points=[[0,0.5],[1,0.5]];portConstraint=eastwest;" parent="NWVS9Q70U_lOfjmnCu6K-1" vertex="1">
          <mxGeometry y="26" width="175" height="26" as="geometry"/>
        </mxCell>
        <mxCell id="NWVS9Q70U_lOfjmnCu6K-5" value="" style="endArrow=diamondThin;endFill=0;endSize=24;html=1;" parent="1" source="NWVS9Q70U_lOfjmnCu6K-1" target="D7cG0ZzbNtGUGOMF9Ujh-174" edge="1">
          <mxGeometry width="160" relative="1" as="geometry">
            <mxPoint x="-33" y="1119" as="sourcePoint"/>
            <mxPoint x="127" y="1119" as="targetPoint"/>
          </mxGeometry>
        </mxCell>
        <mxCell id="NWVS9Q70U_lOfjmnCu6K-6" value="0..*" style="text;html=1;align=center;verticalAlign=middle;resizable=0;points=[];autosize=1;" parent="1" vertex="1">
          <mxGeometry x="655.5" y="974" width="28" height="18" as="geometry"/>
        </mxCell>
        <mxCell id="NWVS9Q70U_lOfjmnCu6K-7" value="1" style="text;html=1;align=center;verticalAlign=middle;resizable=0;points=[];autosize=1;" parent="1" vertex="1">
          <mxGeometry x="662" y="929" width="17" height="18" as="geometry"/>
        </mxCell>
        <mxCell id="NWVS9Q70U_lOfjmnCu6K-8" value="Extends" style="endArrow=block;endSize=16;endFill=0;html=1;entryX=0.351;entryY=1.019;entryDx=0;entryDy=0;entryPerimeter=0;" parent="1" source="NWVS9Q70U_lOfjmnCu6K-1" target="D7cG0ZzbNtGUGOMF9Ujh-105" edge="1">
          <mxGeometry x="0.8426" y="9" width="160" relative="1" as="geometry">
            <mxPoint x="-33" y="1056" as="sourcePoint"/>
            <mxPoint x="739" y="505" as="targetPoint"/>
            <mxPoint as="offset"/>
          </mxGeometry>
        </mxCell>
        <mxCell id="NWVS9Q70U_lOfjmnCu6K-9" value="Order" style="swimlane;fontStyle=0;childLayout=stackLayout;horizontal=1;startSize=26;fillColor=none;horizontalStack=0;resizeParent=1;resizeParentMax=0;resizeLast=0;collapsible=1;marginBottom=0;" parent="1" vertex="1">
          <mxGeometry x="789" y="787" width="175" height="156" as="geometry"/>
        </mxCell>
        <mxCell id="NWVS9Q70U_lOfjmnCu6K-10" value="created: Date and Time" style="text;strokeColor=none;fillColor=none;align=left;verticalAlign=top;spacingLeft=4;spacingRight=4;overflow=hidden;rotatable=0;points=[[0,0.5],[1,0.5]];portConstraint=eastwest;" parent="NWVS9Q70U_lOfjmnCu6K-9" vertex="1">
          <mxGeometry y="26" width="175" height="26" as="geometry"/>
        </mxCell>
        <mxCell id="NWVS9Q70U_lOfjmnCu6K-11" value="modified: Date and Time" style="text;strokeColor=none;fillColor=none;align=left;verticalAlign=top;spacingLeft=4;spacingRight=4;overflow=hidden;rotatable=0;points=[[0,0.5],[1,0.5]];portConstraint=eastwest;" parent="NWVS9Q70U_lOfjmnCu6K-9" vertex="1">
          <mxGeometry y="52" width="175" height="26" as="geometry"/>
        </mxCell>
        <mxCell id="NWVS9Q70U_lOfjmnCu6K-12" value="notes: String" style="text;strokeColor=none;fillColor=none;align=left;verticalAlign=top;spacingLeft=4;spacingRight=4;overflow=hidden;rotatable=0;points=[[0,0.5],[1,0.5]];portConstraint=eastwest;" parent="NWVS9Q70U_lOfjmnCu6K-9" vertex="1">
          <mxGeometry y="78" width="175" height="26" as="geometry"/>
        </mxCell>
        <mxCell id="NWVS9Q70U_lOfjmnCu6K-13" value="approved: Boolean" style="text;strokeColor=none;fillColor=none;align=left;verticalAlign=top;spacingLeft=4;spacingRight=4;overflow=hidden;rotatable=0;points=[[0,0.5],[1,0.5]];portConstraint=eastwest;startSize=26;" parent="NWVS9Q70U_lOfjmnCu6K-9" vertex="1">
          <mxGeometry y="104" width="175" height="26" as="geometry"/>
        </mxCell>
        <mxCell id="NWVS9Q70U_lOfjmnCu6K-14" value="operator_message: String" style="text;strokeColor=none;fillColor=none;align=left;verticalAlign=top;spacingLeft=4;spacingRight=4;overflow=hidden;rotatable=0;points=[[0,0.5],[1,0.5]];portConstraint=eastwest;startSize=26;" parent="NWVS9Q70U_lOfjmnCu6K-9" vertex="1">
          <mxGeometry y="130" width="175" height="26" as="geometry"/>
        </mxCell>
        <mxCell id="NWVS9Q70U_lOfjmnCu6K-18" value="" style="endArrow=diamondThin;endFill=0;endSize=24;html=1;" parent="1" source="NWVS9Q70U_lOfjmnCu6K-9" target="D7cG0ZzbNtGUGOMF9Ujh-174" edge="1">
          <mxGeometry width="160" relative="1" as="geometry">
            <mxPoint x="-33" y="1056" as="sourcePoint"/>
            <mxPoint x="127" y="1056" as="targetPoint"/>
          </mxGeometry>
        </mxCell>
        <mxCell id="NWVS9Q70U_lOfjmnCu6K-23" value="Ordered Activity" style="html=1;" parent="1" vertex="1">
          <mxGeometry x="789" y="1001" width="175" height="36" as="geometry"/>
        </mxCell>
        <mxCell id="NWVS9Q70U_lOfjmnCu6K-24" value="" style="endArrow=diamondThin;endFill=0;endSize=24;html=1;" parent="1" source="NWVS9Q70U_lOfjmnCu6K-23" target="NWVS9Q70U_lOfjmnCu6K-9" edge="1">
          <mxGeometry width="160" relative="1" as="geometry">
            <mxPoint x="-33" y="1066" as="sourcePoint"/>
            <mxPoint x="127" y="1066" as="targetPoint"/>
          </mxGeometry>
        </mxCell>
        <mxCell id="NWVS9Q70U_lOfjmnCu6K-25" value="" style="endArrow=diamondThin;endFill=0;endSize=24;html=1;" parent="1" source="NWVS9Q70U_lOfjmnCu6K-23" target="NWVS9Q70U_lOfjmnCu6K-1" edge="1">
          <mxGeometry width="160" relative="1" as="geometry">
            <mxPoint x="886.5" y="1001" as="sourcePoint"/>
            <mxPoint x="886.5" y="953" as="targetPoint"/>
          </mxGeometry>
        </mxCell>
        <mxCell id="NWVS9Q70U_lOfjmnCu6K-26" value="0..*" style="text;html=1;align=center;verticalAlign=middle;resizable=0;points=[];autosize=1;" parent="1" vertex="1">
          <mxGeometry x="764" y="1001" width="28" height="18" as="geometry"/>
        </mxCell>
        <mxCell id="NWVS9Q70U_lOfjmnCu6K-27" value="1" style="text;html=1;align=center;verticalAlign=middle;resizable=0;points=[];autosize=1;" parent="1" vertex="1">
          <mxGeometry x="737.5" y="995" width="17" height="18" as="geometry"/>
        </mxCell>
        <mxCell id="NWVS9Q70U_lOfjmnCu6K-28" value="0..*" style="text;html=1;align=center;verticalAlign=middle;resizable=0;points=[];autosize=1;" parent="1" vertex="1">
          <mxGeometry x="764" y="846" width="28" height="18" as="geometry"/>
        </mxCell>
        <mxCell id="NWVS9Q70U_lOfjmnCu6K-29" value="1" style="text;html=1;align=center;verticalAlign=middle;resizable=0;points=[];autosize=1;" parent="1" vertex="1">
          <mxGeometry x="737.5" y="840" width="17" height="18" as="geometry"/>
        </mxCell>
        <mxCell id="NWVS9Q70U_lOfjmnCu6K-30" value="" style="endArrow=diamondThin;endFill=0;endSize=24;html=1;" parent="1" source="NWVS9Q70U_lOfjmnCu6K-9" target="D7cG0ZzbNtGUGOMF9Ujh-155" edge="1">
          <mxGeometry width="160" relative="1" as="geometry">
            <mxPoint x="1180.5502308226833" y="803.4" as="sourcePoint"/>
            <mxPoint x="1133" y="736.004" as="targetPoint"/>
          </mxGeometry>
        </mxCell>
        <mxCell id="NWVS9Q70U_lOfjmnCu6K-31" value="" style="endArrow=diamondThin;endFill=0;endSize=24;html=1;" parent="1" source="NWVS9Q70U_lOfjmnCu6K-9" target="D7cG0ZzbNtGUGOMF9Ujh-101" edge="1">
          <mxGeometry width="160" relative="1" as="geometry">
            <mxPoint x="1190.5502308226833" y="813.4000000000001" as="sourcePoint"/>
            <mxPoint x="1143" y="746.0039999999999" as="targetPoint"/>
          </mxGeometry>
        </mxCell>
        <mxCell id="NWVS9Q70U_lOfjmnCu6K-32" value="" style="endArrow=diamondThin;endFill=0;endSize=24;html=1;" parent="1" source="NWVS9Q70U_lOfjmnCu6K-9" target="D7cG0ZzbNtGUGOMF9Ujh-134" edge="1">
          <mxGeometry width="160" relative="1" as="geometry">
            <mxPoint x="1200.5502308226833" y="823.4000000000001" as="sourcePoint"/>
            <mxPoint x="1153" y="756.0039999999999" as="targetPoint"/>
          </mxGeometry>
        </mxCell>
        <mxCell id="NWVS9Q70U_lOfjmnCu6K-33" value="0..1" style="text;html=1;align=center;verticalAlign=middle;resizable=0;points=[];autosize=1;" parent="1" vertex="1">
          <mxGeometry x="749.5" y="619" width="30" height="18" as="geometry"/>
        </mxCell>
        <mxCell id="NWVS9Q70U_lOfjmnCu6K-34" value="0..1" style="text;html=1;align=center;verticalAlign=middle;resizable=0;points=[];autosize=1;" parent="1" vertex="1">
          <mxGeometry x="799" y="739" width="30" height="18" as="geometry"/>
        </mxCell>
        <mxCell id="NWVS9Q70U_lOfjmnCu6K-35" value="0..1" style="text;html=1;align=center;verticalAlign=middle;resizable=0;points=[];autosize=1;" parent="1" vertex="1">
          <mxGeometry x="800" y="495" width="30" height="18" as="geometry"/>
        </mxCell>
        <mxCell id="NWVS9Q70U_lOfjmnCu6K-36" value="Transaction" style="swimlane;fontStyle=0;childLayout=stackLayout;horizontal=1;startSize=26;fillColor=none;horizontalStack=0;resizeParent=1;resizeParentMax=0;resizeLast=0;collapsible=1;marginBottom=0;" parent="1" vertex="1">
          <mxGeometry x="-33" y="678" width="175" height="78" as="geometry"/>
        </mxCell>
        <mxCell id="JHd2xIfFFNgHyuE_ENe2-1" value="created: Date and Time" style="text;strokeColor=none;fillColor=none;align=left;verticalAlign=top;spacingLeft=4;spacingRight=4;overflow=hidden;rotatable=0;points=[[0,0.5],[1,0.5]];portConstraint=eastwest;" vertex="1" parent="NWVS9Q70U_lOfjmnCu6K-36">
          <mxGeometry y="26" width="175" height="26" as="geometry"/>
        </mxCell>
        <mxCell id="NWVS9Q70U_lOfjmnCu6K-37" value="amount: Integer" style="text;strokeColor=none;fillColor=none;align=left;verticalAlign=top;spacingLeft=4;spacingRight=4;overflow=hidden;rotatable=0;points=[[0,0.5],[1,0.5]];portConstraint=eastwest;" parent="NWVS9Q70U_lOfjmnCu6K-36" vertex="1">
          <mxGeometry y="52" width="175" height="26" as="geometry"/>
        </mxCell>
        <mxCell id="NWVS9Q70U_lOfjmnCu6K-40" value="" style="endArrow=diamondThin;endFill=1;endSize=24;html=1;" parent="1" source="D7cG0ZzbNtGUGOMF9Ujh-41" target="NWVS9Q70U_lOfjmnCu6K-36" edge="1">
          <mxGeometry width="160" relative="1" as="geometry">
            <mxPoint x="-18" y="818" as="sourcePoint"/>
            <mxPoint x="142" y="818" as="targetPoint"/>
          </mxGeometry>
        </mxCell>
        <mxCell id="NWVS9Q70U_lOfjmnCu6K-41" value="0..*" style="text;html=1;align=center;verticalAlign=middle;resizable=0;points=[];autosize=1;" parent="1" vertex="1">
          <mxGeometry x="55" y="584" width="28" height="18" as="geometry"/>
        </mxCell>
        <mxCell id="NWVS9Q70U_lOfjmnCu6K-42" value="0..*" style="text;html=1;align=center;verticalAlign=middle;resizable=0;points=[];autosize=1;" parent="1" vertex="1">
          <mxGeometry x="61" y="659" width="28" height="18" as="geometry"/>
        </mxCell>
        <mxCell id="NWVS9Q70U_lOfjmnCu6K-43" value="0..*" style="text;html=1;align=center;verticalAlign=middle;resizable=0;points=[];autosize=1;" parent="1" vertex="1">
          <mxGeometry x="876" y="983" width="28" height="18" as="geometry"/>
        </mxCell>
        <mxCell id="NWVS9Q70U_lOfjmnCu6K-44" value="1" style="text;html=1;align=center;verticalAlign=middle;resizable=0;points=[];autosize=1;" parent="1" vertex="1">
          <mxGeometry x="881.5" y="943" width="17" height="18" as="geometry"/>
        </mxCell>
        <mxCell id="NWVS9Q70U_lOfjmnCu6K-45" value="Extends" style="endArrow=block;endSize=16;endFill=0;html=1;" parent="1" source="D7cG0ZzbNtGUGOMF9Ujh-174" target="D7cG0ZzbNtGUGOMF9Ujh-74" edge="1">
          <mxGeometry x="0.8477" y="-1" width="160" relative="1" as="geometry">
            <mxPoint x="506.8000000000002" y="448" as="sourcePoint"/>
            <mxPoint x="414" y="352" as="targetPoint"/>
            <mxPoint as="offset"/>
          </mxGeometry>
        </mxCell>
        <mxCell id="NWVS9Q70U_lOfjmnCu6K-46" value="Problem-Domain Class Diagram" style="text;align=center;fontStyle=1;verticalAlign=middle;spacingLeft=3;spacingRight=3;strokeColor=none;rotatable=0;points=[[0,0.5],[1,0.5]];portConstraint=eastwest;startSize=26;fillColor=none;fontSize=16;" parent="1" vertex="1">
          <mxGeometry x="-33" y="80" width="257" height="25" as="geometry"/>
        </mxCell>
      </root>
    </mxGraphModel>
  </diagram>
</mxfile>
